<svg xmlns="http://www.w3.org/2000/svg" viewBox="0 0 553.1 553.1"><path fill="#FFDE17" d="M535.1 296.4L282.4 534.3c-10.7 10.1-27.6 9.6-37.7-1.1L17.3 291.5c-10.1-10.7-9.6-27.6 1.1-37.7L271.2 15.9c10.7-10.1 27.6-9.6 37.7 1.1l227.4 241.6c10.1 10.8 9.6 27.7-1.2 37.8z"/><path d="M325.9 402.8h57l5.7-171.5c-.5-21.5-15.7-44-38.2-44.5-30.5-.7-106.5 0-106.5 0l13-35c2-7.5-1.5-19.2-17.2-10.2l-106.8 73.2 97 73.2c11.4 11.5 26.3 5.8 22.5-8.2l-11.6-36.2 79.6 2.1c10.8 0 11 7.6 11 15.6l-5.5 141.5zM235.5 402.8h-67.2v-12.1l25.6-25.7c7.5-7.7 12.6-13.2 15-16.4 2.5-3.2 4.3-6.3 5.4-9.1 1.1-2.8 1.7-5.9 1.7-9.2 0-4.5-1.3-8-4-10.6-2.7-2.6-6.4-3.9-11.2-3.9-3.8 0-7.5.7-11 2.1-3.5 1.4-7.7 3.9-12.3 7.6l-8.6-10.5c5.5-4.7 10.9-8 16.1-9.9 5.2-1.9 10.7-2.9 16.6-2.9 9.2 0 16.6 2.4 22.2 7.2s8.3 11.3 8.3 19.4c0 4.5-.8 8.7-2.4 12.8-1.6 4-4.1 8.2-7.4 12.4s-8.9 10-16.6 17.3L188.5 388v.7h47.1v14.1z"/><path d="M281.2 340.9c10 0 17.9 2.6 23.7 7.9 5.8 5.3 8.7 12.5 8.7 21.6 0 10.6-3.3 18.8-9.9 24.8-6.6 5.9-16 8.9-28.2 8.9-11.1 0-19.8-1.8-26.1-5.4v-14.4c3.7 2.1 7.9 3.7 12.6 4.8 4.7 1.1 9.2 1.7 13.2 1.7 7.2 0 12.7-1.6 16.4-4.8 3.8-3.2 5.6-7.9 5.6-14.1 0-11.8-7.6-17.8-22.7-17.8-2.1 0-4.7.2-7.9.6-3.1.4-5.9.9-8.2 1.5l-7.1-4.2 3.8-48.4h51.5v14.2h-37.5l-2.2 24.6c1.6-.3 3.5-.6 5.8-.9 2.5-.4 5.2-.6 8.5-.6z"/><path fill="none" stroke="#000" stroke-width="8.504" stroke-miterlimit="10" d="M519.6 295.1L282 518.7c-10.1 9.5-26 9-35.5-1.1L32.8 290.5c-9.5-10.1-9-26 1.1-35.5L271.5 31.4c10.1-9.5 26-9 35.5 1.1l213.7 227.1c9.5 10.1 9 26-1.1 35.5z"/></svg>